PathFileType	4	(X/Y/Z)	/Users/itak/Documents/Research/Walk-IL/dataset/trc/00473_00167.trc
DataRate	CameraRate	NumFrames	NumMarkers	Units	OrigDataRate	OrigDataStartFrame	OrigNumFrames
100.000000	100.000000	4	53	mm	100.000000	71	575
Frame#	Time	RPSI			LPSI			L3			STRN			T10			C7			CLAV			RBAK			LBAK			LSHO			LUPA			LAEL			LAOL			LWTS			LWPS			LFRA			LIFD			LHPS			LHTS			RSHO			RUPA			RAEL			RAOL			RWTS			RWPS			RFRA			RIFD			RHTS			RHPS			RBHD			LFHD			RFHD			LBHD			LHIP			RHIP			RASI			LASI			LKNE			LTHI			LANK			LTIP			LTOE			LMT1			LMT5			LHEE			RKNE			RTHI			RANK			RTIP			RTOE			RMT1			RMT5			RHEE			
		X1	Y1	Z1	X2	Y2	Z2	X3	Y3	Z3	X4	Y4	Z4	X5	Y5	Z5	X6	Y6	Z6	X7	Y7	Z7	X8	Y8	Z8	X9	Y9	Z9	X10	Y10	Z10	X11	Y11	Z11	X12	Y12	Z12	X13	Y13	Z13	X14	Y14	Z14	X15	Y15	Z15	X16	Y16	Z16	X17	Y17	Z17	X18	Y18	Z18	X19	Y19	Z19	X20	Y20	Z20	X21	Y21	Z21	X22	Y22	Z22	X23	Y23	Z23	X24	Y24	Z24	X25	Y25	Z25	X26	Y26	Z26	X27	Y27	Z27	X28	Y28	Z28	X29	Y29	Z29	X30	Y30	Z30	X31	Y31	Z31	X32	Y32	Z32	X33	Y33	Z33	X34	Y34	Z34	X35	Y35	Z35	X36	Y36	Z36	X37	Y37	Z37	X38	Y38	Z38	X39	Y39	Z39	X40	Y40	Z40	X41	Y41	Z41	X42	Y42	Z42	X43	Y43	Z43	X44	Y44	Z44	X45	Y45	Z45	X46	Y46	Z46	X47	Y47	Z47	X48	Y48	Z48	X49	Y49	Z49	X50	Y50	Z50	X51	Y51	Z51	X52	Y52	Z52	X53	Y53	Z53	

72	0.71	-1305.169189453125	962.47705078125	-471.7540893554688	-1294.79443359375	959.591064453125	-612.1829833984375	-1288.994262695312	1053.726928710938	-524.9752807617188	-1023.279907226562	1254.726806640625	-528.235595703125	-1305.807373046875	1179.19873046875	-528.3751831054688	-1244.330688476562	1447.889038085938	-512.6688842773438	-1060.82568359375	1367.1923828125	-531.8553466796875	-1306.908203125	1327.624877929688	-420.8273620605469	-1279.925903320312	1401.081787109375	-611.2257080078125	-1180.232177734375	1424.592041015625	-692.7039794921875	-1196.938232421875	1306.677490234375	-790.8637084960938	-1178.32568359375	1094.630859375	-831.3825073242188	-1240.64306640625	1076.814453125	-750.9647827148438	-1086.439453125	895.8475952148438	-819.4348754882812	-1146.070068359375	880.7305908203125	-862.4146118164062	-1158.942260742188	1008.495178222656	-849.0751953125	-1073.14697265625	740.69970703125	-848.6050415039062	-1135.051147460938	807.3467407226562	-872.17919921875	-1069.088500976562	814.6016845703125	-840.6774291992188	-1174.53955078125	1416.526977539062	-354.7405700683594	-1189.231567382812	1356.446166992188	-278.2124938964844	-1179.3642578125	1070.186157226562	-223.2694091796875	-1231.169311523438	1055.480346679688	-264.064697265625	-1089.338989257812	859.474365234375	-256.0750427246094	-1160.686279296875	848.5125732421875	-204.6482696533203	-1179.1103515625	1011.994201660156	-212.3102569580078	-1092.277587890625	703.286865234375	-241.1755218505859	-1076.818603515625	762.458740234375	-238.9296722412109	-1146.884033203125	762.7660522460938	-202.6850891113281	-1170.126342773438	1645.559204101562	-427.8192443847656	-1025.99609375	1665.293701171875	-575.3992309570312	-1033.991333007812	1665.329956054688	-445.21337890625	-1175.751098632812	1649.748168945312	-605.2974853515625	-1151.262939453125	864.5628662109375	-724.8128051757812	-1200.333862304688	860.8955078125	-328.2968139648438	-1086.779418945312	901.8370971679688	-379.0517883300781	-1058.733764648438	900.8631591796875	-638.0556030273438	-1156.396606445312	446.6960754394531	-694.447021484375	-1126.463989257812	598.045654296875	-712.4403076171875	-1228.333740234375	41.40407943725586	-700.097900390625	-1164.822509765625	300.3367614746094	-709.8527221679688	-1007.235656738281	44.11224365234375	-603.6485595703125	-1085.205688476562	50.61856842041016	-584.0496215820312	-1074.244873046875	45.18579864501953	-697.3158569335938	-1280.953735351562	46.42601776123047	-643.1375122070312	-1180.727416992188	471.0014953613281	-343.8449096679688	-1158.023681640625	728.957275390625	-310.0479125976562	-1251.283325195312	46.92930603027344	-333.6090393066406	-1186.53857421875	327.1521301269531	-329.9799499511719	-1033.26025390625	48.21884536743164	-360.8912353515625	-1092.852416992188	52.23389053344727	-402.6146850585938	-1121.474365234375	48.71165084838867	-296.7664794921875	-1312.4453125	39.65433883666992	-382.8937072753906	
73	0.72	-1305.155517578125	962.4312744140625	-471.8668212890625	-1294.723388671875	959.5817260742188	-612.2699584960938	-1288.975708007812	1053.692138671875	-525.05908203125	-1023.262451171875	1254.769287109375	-528.0704956054688	-1305.79736328125	1179.17529296875	-528.3944091796875	-1244.414794921875	1447.857543945312	-512.6290283203125	-1060.904907226562	1367.182861328125	-531.702880859375	-1307.034423828125	1327.5859375	-420.8190307617188	-1279.950805664062	1401.069946289062	-611.1973266601562	-1180.218994140625	1424.59033203125	-692.6542358398438	-1196.851318359375	1306.668212890625	-790.7890014648438	-1178.340942382812	1094.613159179688	-831.2796630859375	-1240.6396484375	1076.833251953125	-750.8966064453125	-1086.673950195312	895.681640625	-819.2662963867188	-1146.31787109375	880.7200927734375	-862.20947265625	-1159.058227539062	1008.415649414062	-848.9003295898438	-1073.570190429688	740.5803833007812	-848.2915649414062	-1135.341674804688	807.2281494140625	-871.9251098632812	-1069.518920898438	814.3735961914062	-840.4107666015625	-1174.7060546875	1416.484375	-354.6587219238281	-1189.47412109375	1356.363037109375	-278.1333312988281	-1179.712280273438	1070.134155273438	-223.246826171875	-1231.478759765625	1055.445556640625	-264.1376037597656	-1089.78369140625	859.3668823242188	-256.1203308105469	-1161.14794921875	848.44873046875	-204.7172241210938	-1179.497680664062	1011.930114746094	-212.3154907226562	-1092.873168945312	703.1434326171875	-241.1800384521484	-1077.352661132812	762.3090209960938	-238.9565582275391	-1147.414672851562	762.6531372070312	-202.7557525634766	-1170.201416015625	1645.556274414062	-427.7295837402344	-1026.132690429688	1665.2978515625	-575.3154907226562	-1034.070190429688	1665.345703125	-445.1415405273438	-1175.878173828125	1649.744995117188	-605.1483154296875	-1151.118408203125	864.5862426757812	-724.8485717773438	-1200.352172851562	860.87353515625	-328.3582153320312	-1086.81494140625	901.8279418945312	-379.0466918945312	-1058.677124023438	900.8847045898438	-638.0714721679688	-1156.33251953125	446.6765441894531	-694.4530029296875	-1126.322998046875	598.0503540039062	-712.4467163085938	-1228.31396484375	41.45742034912109	-700.0560913085938	-1164.740478515625	300.3430786132812	-709.8468017578125	-1007.237548828125	44.11014556884766	-603.6426391601562	-1085.159912109375	50.62634658813477	-584.0471801757812	-1074.231689453125	45.18357086181641	-697.3133544921875	-1280.955810546875	46.43070602416992	-643.1392211914062	-1180.713256835938	471.0115966796875	-343.8853759765625	-1158.069580078125	728.933837890625	-310.0914001464844	-1251.288818359375	46.92850494384766	-333.6105346679688	-1186.520874023438	327.1409606933594	-329.9874877929688	-1033.26416015625	48.22270965576172	-360.8902587890625	-1092.858520507812	52.23116302490234	-402.6193237304688	-1121.475708007812	48.71875762939453	-296.7867431640625	-1312.45654296875	39.64162826538086	-382.8958740234375	
74	0.73	-1305.121337890625	962.3875122070312	-471.9734497070312	-1294.633178710938	959.5703735351562	-612.3504638671875	-1288.944091796875	1053.6484375	-525.145751953125	-1023.21630859375	1254.815063476562	-527.8987426757812	-1305.781860351562	1179.142211914062	-528.4134521484375	-1244.493408203125	1447.817260742188	-512.6019897460938	-1060.979125976562	1367.18017578125	-531.5398559570312	-1307.149780273438	1327.5380859375	-420.8343200683594	-1279.971435546875	1401.0517578125	-611.1705322265625	-1180.208374023438	1424.581909179688	-692.6093139648438	-1196.758666992188	1306.6376953125	-790.7127685546875	-1178.337890625	1094.585693359375	-831.1700439453125	-1240.626708984375	1076.84814453125	-750.82373046875	-1086.91357421875	895.5399169921875	-819.0752563476562	-1146.558349609375	880.6685791015625	-861.9729614257812	-1159.176879882812	1008.339050292969	-848.720703125	-1074.01123046875	740.4564208984375	-848.0145263671875	-1135.636962890625	807.0997924804688	-871.6588745117188	-1069.9091796875	814.1611938476562	-840.133544921875	-1174.864868164062	1416.445434570312	-354.5913696289062	-1189.72509765625	1356.2802734375	-278.0493774414062	-1180.063598632812	1070.078125	-223.2146453857422	-1231.807861328125	1055.412109375	-264.1832885742188	-1090.184204101562	859.257568359375	-256.1452941894531	-1161.60888671875	848.3838500976562	-204.7718658447266	-1179.8837890625	1011.869018554688	-212.3055114746094	-1093.451171875	703.0006103515625	-241.1695709228516	-1077.876220703125	762.174072265625	-238.9683685302734	-1147.952026367188	762.5419311523438	-202.7903137207031	-1170.278442382812	1645.55029296875	-427.644775390625	-1026.270385742188	1665.296875	-575.2410278320312	-1034.146728515625	1665.365112304688	-445.0702819824219	-1175.989135742188	1649.734619140625	-605.0089721679688	-1150.946044921875	864.6035766601562	-724.8751220703125	-1200.3525390625	860.8497314453125	-328.4078369140625	-1086.840942382812	901.8203125	-379.0401000976562	-1058.616455078125	900.9028930664062	-638.0866088867188	-1156.259643554688	446.6589050292969	-694.4591064453125	-1126.16162109375	598.0538940429688	-712.44384765625	-1228.29248046875	41.5113639831543	-700.0153198242188	-1164.655395507812	300.347412109375	-709.8392944335938	-1007.240173339844	44.10724639892578	-603.6350708007812	-1085.109985351562	50.63082885742188	-584.039306640625	-1074.2158203125	45.18136978149414	-697.3107299804688	-1280.960083007812	46.43543243408203	-643.1422729492188	-1180.708862304688	471.0197448730469	-343.9252319335938	-1158.09912109375	728.9075927734375	-310.1306457519531	-1251.296142578125	46.92724990844727	-333.6118774414062	-1186.510131835938	327.1302795410156	-329.9955444335938	-1033.266967773438	48.22480773925781	-360.8904418945312	-1092.867431640625	52.22864532470703	-402.6248168945312	-1121.477661132812	48.7275276184082	-296.8069152832031	-1312.470825195312	39.6274528503418	-382.8973083496094	
75	0.74	-1305.068237304688	962.3446655273438	-472.0733947753906	-1294.525024414062	959.555908203125	-612.4270629882812	-1288.899291992188	1053.595703125	-525.2349853515625	-1023.147583007812	1254.860961914062	-527.7258911132812	-1305.761962890625	1179.100463867188	-528.4342041015625	-1244.56689453125	1447.769409179688	-512.5845947265625	-1061.04638671875	1367.1845703125	-531.3690795898438	-1307.253784179688	1327.4814453125	-420.8735046386719	-1279.98779296875	1401.027709960938	-611.1469116210938	-1180.19677734375	1424.566040039062	-692.5679931640625	-1196.66357421875	1306.587646484375	-790.6363525390625	-1178.311157226562	1094.5478515625	-831.0523071289062	-1240.606323242188	1076.859619140625	-750.743896484375	-1087.149536132812	895.416259765625	-818.8597412109375	-1146.780151367188	880.5723266601562	-861.7085571289062	-1159.287231445312	1008.266540527344	-848.5398559570312	-1074.4619140625	740.3277587890625	-847.7587280273438	-1135.92724609375	806.9680786132812	-871.3889770507812	-1070.257568359375	813.9575805664062	-839.8513793945312	-1175.013793945312	1416.410522460938	-354.5391235351562	-1189.980712890625	1356.19970703125	-277.9620971679688	-1180.418701171875	1070.0166015625	-223.1748504638672	-1232.155517578125	1055.383666992188	-264.1978149414062	-1090.53369140625	859.1486206054688	-256.1506958007812	-1162.071166992188	848.3162841796875	-204.8095550537109	-1180.267700195312	1011.808837890625	-212.285888671875	-1094.007568359375	702.86279296875	-241.1473541259766	-1078.385375976562	762.0504760742188	-238.9608306884766	-1148.497802734375	762.4358520507812	-202.7870483398438	-1170.357543945312	1645.540283203125	-427.5662231445312	-1026.40673828125	1665.293579101562	-575.1756591796875	-1034.223999023438	1665.39013671875	-445.0000610351562	-1176.083862304688	1649.714233398438	-604.8826293945312	-1150.750244140625	864.6126098632812	-724.8912353515625	-1200.339233398438	860.824462890625	-328.4407348632812	-1086.85693359375	901.8120727539062	-379.0337219238281	-1058.551391601562	900.91796875	-638.1001586914062	-1156.1767578125	446.6454162597656	-694.4656372070312	-1125.980224609375	598.0569458007812	-712.4310913085938	-1228.2763671875	41.55271911621094	-699.9844970703125	-1164.570678710938	300.3484497070312	-709.8314819335938	-1007.242614746094	44.10327529907227	-603.626953125	-1085.055541992188	50.63096618652344	-584.026611328125	-1074.199584960938	45.17979049682617	-697.3074340820312	-1280.965087890625	46.43941879272461	-643.1470336914062	-1180.70751953125	471.0252685546875	-343.9643859863281	-1158.111328125	728.8775024414062	-310.1650085449219	-1251.30517578125	46.92543411254883	-333.6134033203125	-1186.502197265625	327.1192016601562	-330.0049438476562	-1033.268798828125	48.22480392456055	-360.8923645019531	-1092.879028320312	52.22605514526367	-402.6311645507812	-1121.480224609375	48.73758697509766	-296.8263549804688	-1312.48779296875	39.61231994628906	-382.8985900878906	
